<svg xmlns="http://www.w3.org/2000/svg" viewBox="0 0 1081.8 177"><defs><style>.cls-1{fill:#fff;}</style></defs><g id="Camada_2" data-name="Camada 2"><g id="Camada_1-2" data-name="Camada 1"><path class="cls-1" d="M177,88.5a88.42,88.42,0,1,1-2.52-21H152.6a67.46,67.46,0,1,0,0,42.08H88.5v-21Z"/><rect class="cls-1" x="198.04" y="47.03" width="21.04" height="129.97"/><path class="cls-1" d="M1081.45,118.83a64.16,64.16,0,0,0,.35-6.81,64.92,64.92,0,1,0-6,27.23h-23.75a44.56,44.56,0,0,1-79.31-20.42ZM974.38,98.4a44.58,44.58,0,0,1,84.88,0Z"/><path class="cls-1" d="M607.74,0V64.14a65,65,0,1,0,21,47.88V0ZM563.8,156.58a44.55,44.55,0,1,1,43.94-37.14A44.57,44.57,0,0,1,563.8,156.58Z"/><path class="cls-1" d="M305.11,47a65,65,0,1,0,65,65A65,65,0,0,0,305.11,47Zm0,109.55A44.56,44.56,0,1,1,349.67,112,44.57,44.57,0,0,1,305.11,156.58Z"/><path class="cls-1" d="M930.8,112v65h-21V112a43.95,43.95,0,0,0-87.89,0v65h-21V47h21V64.14A65,65,0,0,1,930.8,112Z"/><path class="cls-1" d="M758.75,47V64.14a65,65,0,1,0,0,95.75V177h21V47ZM714.81,156.58a44.56,44.56,0,1,1,43.94-52,43.86,43.86,0,0,1,.58,5.54c0,.62,0,1.26,0,1.89s0,1.26,0,1.89a43.51,43.51,0,0,1-.58,5.53A44.58,44.58,0,0,1,714.81,156.58Z"/><path class="cls-1" d="M477.78,57.33V79.54a44.58,44.58,0,0,0-65.61,39.29V177h-21V47h21V71.52a65.06,65.06,0,0,1,65.61-14.19Z"/></g></g></svg>