<?xml version="1.0" encoding="UTF-8"?>
<svg id="Layer_2" data-name="Layer 2" xmlns="http://www.w3.org/2000/svg" viewBox="0 0 1208.13 202.14">
  <defs>
    <style>
      .cls-1 {
        fill: #fff;
      }
    </style>
  </defs>
  <g id="Layer_1-2" data-name="Layer 1">
    <g>
      <path class="cls-1" d="M113.89,0H0v202.14h43.3v-70.6h70.6v-17.65h17.65V17.65h-17.65V0ZM88.24,43.3v44.95h-44.95v-44.95h44.95Z"/>
      <rect class="cls-1" x="158.84" width="43.3" height="43.3"/>
      <rect class="cls-1" x="158.84" y="52.95" width="43.3" height="149.19"/>
      <polygon class="cls-1" points="300.03 70.6 272.73 70.6 272.73 52.95 229.44 52.95 229.44 96.25 247.08 96.25 247.08 113.89 264.73 113.89 264.73 141.19 247.08 141.19 247.08 158.84 229.44 158.84 229.44 202.14 272.73 202.14 272.73 184.49 300.03 184.49 300.03 202.14 343.33 202.14 343.33 158.84 325.68 158.84 325.68 141.19 308.03 141.19 308.03 113.89 325.68 113.89 325.68 96.25 343.33 96.25 343.33 52.95 300.03 52.95 300.03 70.6"/>
      <path class="cls-1" d="M466.87,52.95h-78.6v17.65h-17.65v113.89h17.65v17.65h78.6v-17.65h17.65v-43.3h-43.3v17.65h-27.3v-27.3h70.6v-60.95h-17.65v-17.65ZM441.22,96.25v9.65h-27.3v-9.65h27.3Z"/>
      <rect class="cls-1" x="511.82" width="43.3" height="202.14"/>
      <polygon class="cls-1" points="713.96 0 670.66 0 670.66 202.14 784.55 202.14 784.55 158.84 713.96 158.84 713.96 0"/>
      <path class="cls-1" d="M908.1,52.95h-78.59v17.65h-17.65v113.89h17.65v17.65h78.59v-17.65h17.65v-113.89h-17.65v-17.65ZM882.45,96.25v62.6h-27.3v-62.6h27.3Z"/>
      <polygon class="cls-1" points="1023.64 141.19 996.34 141.19 996.34 52.95 953.04 52.95 953.04 166.84 970.69 166.84 970.69 184.49 988.34 184.49 988.34 202.14 1031.64 202.14 1031.64 184.49 1049.29 184.49 1049.29 166.84 1066.94 166.84 1066.94 52.95 1023.64 52.95 1023.64 141.19"/>
      <path class="cls-1" d="M1208.13,131.54v-60.95h-17.65v-17.65h-78.6v17.65h-17.65v113.89h17.65v17.65h78.6v-17.65h17.65v-43.3h-43.3v17.65h-27.3v-27.3h70.6ZM1137.53,105.89v-9.65h27.3v9.65h-27.3Z"/>
    </g>
  </g>
</svg>