<svg xmlns="http://www.w3.org/2000/svg" viewBox="0 0 857.35 232.85"><defs><style>.cls-1{fill:#fff;}</style></defs><g id="Camada_2" data-name="Camada 2"><g id="Camada_1-2" data-name="Camada 1"><path class="cls-1" d="M140.28,70.14a70.08,70.08,0,1,1-2-16.68H120.94a53.47,53.47,0,1,0,0,33.35H70.14V70.14Z"/><rect class="cls-1" x="156.95" y="37.28" width="16.68" height="103"/><path class="cls-1" d="M857.07,94.17a50.52,50.52,0,0,0,.28-5.39,51.47,51.47,0,1,0-4.73,21.58H833.8A35.31,35.31,0,0,1,771,94.17ZM772.22,78a35.32,35.32,0,0,1,67.26,0Z"/><path class="cls-1" d="M481.65,0V50.83a51.53,51.53,0,1,0,16.67,38V0ZM446.82,124.09a35.29,35.29,0,1,1,34.83-29.43A35.31,35.31,0,0,1,446.82,124.09Z"/><path class="cls-1" d="M241.8,37.28a51.5,51.5,0,1,0,51.5,51.5A51.5,51.5,0,0,0,241.8,37.28Zm0,86.81a35.32,35.32,0,1,1,35.32-35.31A35.31,35.31,0,0,1,241.8,124.09Z"/><path class="cls-1" d="M737.68,88.78v51.5H721V88.78a34.83,34.83,0,1,0-69.65,0v51.5H634.68v-103h16.67V50.83a51.51,51.51,0,0,1,86.33,38Z"/><path class="cls-1" d="M601.32,37.28V50.83a51.51,51.51,0,1,0,0,75.89v13.56H618v-103ZM566.5,124.09a35.32,35.32,0,1,1,34.82-41.2,33.3,33.3,0,0,1,.46,4.39q0,.75,0,1.5c0,.5,0,1,0,1.49a33.3,33.3,0,0,1-.46,4.39A35.32,35.32,0,0,1,566.5,124.09Z"/><path class="cls-1" d="M378.65,45.43V63a35.32,35.32,0,0,0-52,31.13v46.11H310v-103h16.68v19.4a51.58,51.58,0,0,1,52-11.25Z"/><path class="cls-1" d="M62,232.39l-.09-55.95L34.54,223.7H32.21L4.85,176.63v55.76H.18V167h4l29.23,50.53L62.65,167h3.93l.09,65.38Z"/><path class="cls-1" d="M167.25,214H129.33L121,232.39h-5.14L146,167h4.77l30.07,65.38h-5.14Zm-1.78-4-17.18-37.72L131.2,210Z"/><path class="cls-1" d="M275.38,232.39l-15.59-21.85a47.79,47.79,0,0,1-6.35.46H234.76v21.39H230V167h23.44q12.33,0,19.33,5.84t7,16.2a19.9,19.9,0,0,1-15.31,20.45l16.34,22.89ZM253.44,206.8q10.46,0,16-4.62t5.51-13.13q0-8.49-5.51-13.12t-16-4.62H234.76V206.8Z"/><path class="cls-1" d="M354,200.17l-14.66,15v17.19h-4.77V167h4.77v42l40.8-42H386l-28.76,29.7,30.72,35.68h-5.79Z"/><path class="cls-1" d="M482.7,228.09v4.3H437.59V167H481.3v4.3H442.36v25.77h34.83v4.21H442.36v26.8Z"/><path class="cls-1" d="M549.93,171.31H526.4V167h51.83v4.3H554.7v61.08h-4.77Z"/><path class="cls-1" d="M627.35,167h4.77v65.38h-4.77Z"/><path class="cls-1" d="M745.49,167v65.38h-3.93L697,175.61v56.78h-4.76V167h4l44.45,56.79V167Z"/><path class="cls-1" d="M852.32,200h4.57v24.47a28.53,28.53,0,0,1-10.41,6.26,39,39,0,0,1-12.93,2.14A35.71,35.71,0,0,1,816,228.56a31.55,31.55,0,0,1-12.23-11.86,34.75,34.75,0,0,1,0-34A31.51,31.51,0,0,1,816,170.84a35.92,35.92,0,0,1,17.6-4.29,36.85,36.85,0,0,1,13.22,2.29,28.27,28.27,0,0,1,10.32,6.68l-3,3.17a24.68,24.68,0,0,0-9.2-5.93,33,33,0,0,0-11.25-1.83,30.91,30.91,0,0,0-15.18,3.74A27.32,27.32,0,0,0,808,185a28.74,28.74,0,0,0-3.83,14.71A28.26,28.26,0,0,0,808,214.31a27.93,27.93,0,0,0,10.6,10.37,30.31,30.31,0,0,0,15.13,3.78q11.21,0,18.58-6Z"/></g></g></svg>